/* XPM */
static char *ffe882c1c4c94ce0a8d1129d7b51ae0f6DBv8KwXOgHlqyc3[] = {
/* columns rows colors chars-per-pixel */
"16 14 61 1 ",
"  c None",
". c #4B6BB0",
"X c #4A6BB1",
"o c #4B6DB3",
"O c #4C6FB4",
"+ c #4C6EB5",
"@ c #4E70B7",
"# c #4E71B9",
"$ c #4F72BA",
"% c #5074B5",
"& c #5073BD",
"* c #5074BD",
"= c #5075BD",
"- c #5074BE",
"; c #5175BE",
": c #5075BF",
"> c #5175BF",
", c #547AB9",
"< c #5175C0",
"1 c #5176C0",
"2 c #5176C1",
"3 c #5177C2",
"4 c #5276C2",
"5 c #5277C2",
"6 c #5276C3",
"7 c #5277C3",
"8 c #577EC2",
"9 c #557BC4",
"0 c #5B84BF",
"q c #5D86C6",
"w c #5E89C4",
"e c #648FCD",
"r c #6898CE",
"t c #6C9CCF",
"y c #6C9AD1",
"u c #6C9AD2",
"i c #73A7D6",
"p c #75A5D8",
"a c #77A8D9",
"s c #7AB3DF",
"d c #7DB2DE",
"f c #7EB2DE",
"g c #7EB3DF",
"h c #7FB3DF",
"j c #7EB4DF",
"k c #7DB4E0",
"l c #7CB5E0",
"z c #7EB4E0",
"x c #7EB5E1",
"c c #7DB7E1",
"v c #7EB6E1",
"b c #7EB7E1",
"n c #7DB7E2",
"m c #7EB7E2",
"M c #7DB8E2",
"N c #7EB8E2",
"B c #7EB8E3",
"V c #7EB9E3",
"C c #7EB9E4",
"Z c #7EBAE4",
"A c #7EBBE4",
/* pixels */
"    7   Z  Z    ",
"    7=  ZZVV    ",
"    7## rVm     ",
"  777=#o%im     ",
"    uu    jf 7  ",
"    ff    fp97  ",
"VVmmm      q&777",
"ZVmmt      @#===",
"  Zs,.    Xo    ",
"  Z ++    0w    ",
"     #8afkmmZZ  ",
"     ==e mmm    ",
"    =777  mV    ",
"    7  7   Z    "
};
